<svg width="28" height="29" viewBox="0 0 28 29" fill="none" xmlns="http://www.w3.org/2000/svg">
<path d="M25.9153 7.27754C25.0245 7.67125 24.08 7.92998 23.113 8.0452C24.1312 7.43479 24.8932 6.47548 25.2573 5.34554C24.3006 5.91487 23.2518 6.31387 22.1598 6.5297C21.4255 5.74404 20.4522 5.22299 19.3913 5.04755C18.3303 4.87211 17.2411 5.05211 16.293 5.55956C15.3448 6.06702 14.5909 6.8735 14.1484 7.85363C13.706 8.83375 13.5997 9.93261 13.8461 10.9794C11.9058 10.8826 10.0076 10.3786 8.27481 9.50027C6.542 8.62191 5.01339 7.38879 3.78831 5.88104C3.35476 6.62594 3.12687 7.47265 3.12798 8.33454C3.12798 10.0262 3.99015 11.5207 5.29798 12.3957C4.52354 12.3699 3.76626 12.1608 3.08831 11.7855V11.845C3.08828 12.9719 3.47802 14.0641 4.19143 14.9363C4.90485 15.8086 5.89801 16.4072 7.00248 16.6307C6.28343 16.826 5.52931 16.8547 4.79748 16.7147C5.10889 17.6847 5.7159 18.5329 6.53348 19.1407C7.35106 19.7484 8.33826 20.0852 9.35681 20.1039C8.34437 20.8986 7.1853 21.486 5.9458 21.8327C4.7063 22.1795 3.41064 22.2786 2.13281 22.1245C4.36313 23.5589 6.95943 24.3203 9.61115 24.3179C18.5875 24.3179 23.4945 16.8827 23.4945 10.4345C23.4945 10.2238 23.4898 10.0134 23.4805 9.80337C24.4352 9.11306 25.2593 8.25814 25.9141 7.2787" fill="#0E1011"/>
</svg>
